<svg version="1.2" xmlns="http://www.w3.org/2000/svg" viewBox="0 0 828 837" width="828" height="837">
	<title>jumbo-bkg-svg</title>
	<defs>
		<clipPath clipPathUnits="userSpaceOnUse" id="cp1">
			<path d="m0 0h827.95v1022.72h-827.95z"/>
		</clipPath>
	</defs>
	<style>
		.s0 { fill: #f14e56 } 
		.s1 { fill: #9b006c } 
		.s2 { fill: #999999 } 
		.s3 { fill: #fabe00 } 
		.s4 { fill: #ffffff } 
		.s5 { fill: #440063 } 
		.s6 { fill: #450063 } 
		.s7 { fill: #feffff } 
		.s8 { fill: #440064 } 
		.s9 { fill: #c87d5d } 
		.s10 { fill: #986b56 } 
		.s11 { fill: #8c9c9c } 
		.s12 { fill: #aebaba } 
		.s13 { fill: #725446 } 
		.s14 { fill: #00ccbd } 
		.s15 { fill: #fabd01 } 
		.s16 { fill: #007e8a } 
		.s17 { fill: #9a0d6d } 
		.s18 { fill: #d6dddd } 
		.s19 { fill: #fabd00 } 
		.s20 { fill: #00ccbf } 
		.s21 { fill: #91a6a6 } 
		.s22 { fill: #ff9966 } 
		.s23 { fill: #65e3db } 
		.s24 { fill: #007d8a } 
		.s25 { fill: #00a399 } 
		.s26 { fill: #00666e } 
		.s27 { fill: #38004f } 
		.s28 { opacity: .1;fill: #000000 } 
		.s29 { fill: #fa4f59 } 
	</style>
	<g id="Clip-Path" clip-path="url(#cp1)">
		<g id="Layer">
			<path id="Layer" class="s0" d="m205.9 845.9l41.6-6.3 9.5 59.6-2.8 0.5q0.1 0.2 0.1 0.4 0 0.2 0.1 0.4 0 0.2 0 0.5 0 0.2 0 0.4 0.1 1.3-0.1 2.6-0.1 1.1-0.3 2.1-0.3 1-0.6 1.9-0.4 1-1 1.9-0.5 0.9-1.1 1.7-0.9 1.3-2.1 2.3-1.1 1.1-2.5 1.9-1.3 0.9-2.8 1.4-1.5 0.5-3 0.7-1.6 0.3-3.2 0.2-1.6 0-3.1-0.4-1.5-0.3-3-1-1.4-0.7-2.6-1.6c-3.6-2.7-11.2-5.1-11.9-9.4z"/>
			<path id="Layer" class="s1" d="m266.9 873.5h-61l-39.1-380.3h97.8z"/>
			<path id="Layer" class="s1" d="m135.9 687.2l-66.5-13.5 27.1-187 116.1 18.5z"/>
			<path id="Layer" class="s0" d="m104.4 864.3l41.1-9 3.8 64.4-2.7 0.7q0 0.2 0 0.4 0.1 0.2 0.1 0.5 0.1 0.2 0.1 0.4 0 0.2 0 0.4 0.2 1.3 0.1 2.6 0 1.1-0.2 2.1-0.1 1-0.5 2-0.3 1-0.8 1.9-0.4 0.9-1 1.8-0.8 1.3-1.9 2.5-1.1 1.1-2.4 2-1.3 0.9-2.7 1.6-1.5 0.6-3 0.9-1.5 0.4-3.1 0.4-1.6 0.1-3.2-0.2-1.5-0.3-3-0.8-1.5-0.6-2.8-1.5c-3.7-2.4-11.4-4.3-12.4-8.5z"/>
			<path id="Layer" class="s2" d="m139.5 909.6q9.2-4.2 18.2-13.4l3.5 31.2-23.9 5 2.2-22.7zm-119 23.8l16.1-7.1q0.1 0.4 0.3 0.8 0.2 0.4 0.4 0.8 0.2 0.4 0.5 0.8 0.2 0.4 0.5 0.7 6.7 9.1 29.2 0.9 24.2-8.9 33.7-3.6 5.3 2.7 6.3 10.4l-49.7 8.8-47.8 1q1.6-9.3 10.5-13.5z"/>
			<path id="Layer" class="s3" d="m107.5 937.2l29.8-4.8 23.9-5 1.8 16.2-0.3 0.1-104.9 2.4z"/>
			<path id="Layer" class="s4" d="m105.4 895.3c8.1 5.8 29 5.6 41.6-5.6q10.3-3.3 10.7 6.5-9 9.2-18.2 13.5c-14.5 6.6-34.5 4.1-49.7-7.5zm-95.4 51.7l47.7-0.9 104.9-2.4q2.2 13.4-13.1 13.6h-128q-12.9-0.6-11.5-10.3z"/>
			<path id="Layer" class="s5" d="m38.2 929.5q-0.3-0.3-0.5-0.7-0.2-0.4-0.4-0.8-0.2-0.4-0.4-0.8-0.2-0.4-0.3-0.8l53.2-24.2c15.2 11.6 35.2 14.1 49.7 7.5l-2.2 22.7-29.8 4.8q-1-7.7-6.3-10.4-9.6-5.3-33.7 3.6-22.5 8.2-29.3-0.9z"/>
			<path id="Layer" class="s4" d="m57.7 928.3q-0.5 0-0.9-0.1-0.5-0.1-0.9-0.3-0.3-0.2-0.7-0.5-0.3-0.4-0.5-0.7l-4.6-7.2c-0.5-0.8-0.6-1.8-0.4-2.6 0.2-0.9 0.8-1.7 1.5-2.2 0.8-0.5 1.8-0.6 2.7-0.5 0.8 0.2 1.6 0.8 2.1 1.5l4.6 7.2q0.4 0.6 0.5 1.3 0.1 0.7-0.1 1.4-0.2 0.7-0.6 1.3-0.4 0.6-1 0.9-0.2 0.1-0.4 0.2-0.3 0.1-0.5 0.2-0.2 0-0.5 0.1-0.2 0-0.4 0zm14-5.9q-0.5 0-0.9-0.1-0.4-0.1-0.8-0.3-0.4-0.2-0.7-0.5-0.3-0.3-0.6-0.7l-4.5-7.1q-0.4-0.4-0.6-0.9-0.2-0.6-0.2-1.1-0.1-0.6 0.1-1.1 0.1-0.6 0.4-1.1 0.3-0.4 0.8-0.8 0.4-0.3 0.9-0.5 0.6-0.2 1.1-0.2 0.6-0.1 1.2 0.1 0.3 0.1 0.6 0.3 0.4 0.2 0.7 0.4 0.2 0.3 0.5 0.6 0.2 0.3 0.3 0.6l4.6 7.1q0.4 0.6 0.5 1.3 0.1 0.7-0.1 1.4-0.1 0.7-0.5 1.3-0.5 0.5-1.1 0.9c-0.5 0.3-1.1 0.5-1.8 0.5zm13.4-6.4q-0.4 0-0.9-0.1-0.4-0.1-0.8-0.3-0.4-0.2-0.7-0.6-0.4-0.3-0.6-0.6l-4.4-7.3q-0.3-0.4-0.5-0.9-0.1-0.5-0.1-1 0.1-0.5 0.2-1 0.2-0.5 0.5-0.9 0.5-0.7 1.3-1.1 0.8-0.4 1.6-0.4 0.9 0.1 1.7 0.5 0.7 0.4 1.2 1.2l4.5 7.2c0.3 0.5 0.5 1.1 0.5 1.7 0 0.7-0.1 1.3-0.4 1.8-0.3 0.6-0.8 1-1.3 1.3-0.6 0.4-1.2 0.5-1.8 0.5z"/>
			<path id="Layer" class="s1" d="m160.5 874l-67.7 4.5-23.4-206.4 67.8-4.4z"/>
			<path id="Layer" class="s4" d="m199.4 941.6h73.6v4.4c0 1.2-0.2 2.5-0.7 3.6-0.5 1.2-1.2 2.2-2.1 3.1-0.8 0.9-1.9 1.6-3 2.1-1.2 0.4-2.4 0.7-3.7 0.7h-54.7c-1.2 0-2.4-0.3-3.6-0.7-1.1-0.5-2.2-1.2-3.1-2.1-0.8-0.9-1.5-1.9-2-3.1-0.5-1.1-0.7-2.4-0.7-3.6v-4.3z"/>
			<path id="Layer" class="s5" d="m259.6 895.5q1.4 0.5 2.6 1.5 1.2 0.9 1.9 2.3 0.8 1.3 1.1 2.7l7.8 39.6h-73.6l7.8-39.5q0.2-1.5 1-2.8 0.8-1.3 2-2.3 1.2-1 2.6-1.5 1.4-0.5 2.9-0.5h40.9q1.5 0 3 0.5z"/>
			<path id="Layer" class="s2" d="m273 941.6h-73.6c5.6-11.2 15-18.4 36.8-18.4 21.7 0 31.2 7.2 36.8 18.4z"/>
			<path id="Layer" fill-rule="evenodd" class="s4" d="m220.9 920.6q-0.7 0-1.3-0.3-0.6-0.3-1.1-0.7-0.5-0.5-0.8-1.2-0.3-0.6-0.3-1.3 0-0.7 0.3-1.4 0.3-0.6 0.8-1.1 0.5-0.5 1.1-0.8 0.6-0.2 1.3-0.2l30.5-0.1c0.7 0 1.4 0.2 2 0.6 0.6 0.4 1 0.9 1.3 1.6 0.2 0.6 0.3 1.3 0.2 2-0.2 0.7-0.5 1.3-1 1.8q-0.2 0.2-0.5 0.4-0.3 0.2-0.6 0.4-0.3 0.1-0.7 0.2-0.3 0-0.7 0zm2.5-11.9q-0.7 0-1.4-0.3-0.6-0.3-1.1-0.7-0.5-0.5-0.8-1.2-0.2-0.6-0.2-1.3 0-0.7 0.2-1.4 0.3-0.6 0.8-1.1 0.5-0.5 1.1-0.8 0.7-0.2 1.4-0.2l25.4-0.1c0.7 0 1.4 0.2 1.9 0.6 0.6 0.4 1.1 0.9 1.3 1.6 0.3 0.6 0.4 1.3 0.2 2-0.1 0.7-0.4 1.3-0.9 1.8q-0.3 0.2-0.6 0.4-0.3 0.2-0.6 0.3-0.3 0.2-0.6 0.2-0.4 0.1-0.7 0.1zm-4.5-9.1q-1.7 2.1-3.7 3.8-2 1.8-4.4 3.1-2.3 1.3-4.9 2.1l1.3-6.5q0.3-1.5 1.1-2.8 0.8-1.3 1.9-2.3 1.2-0.9 2.6-1.4 1.5-0.5 3-0.5h5.9q-1.2 2.4-2.8 4.5zm42.9 6.7q-2.3-1.3-4.3-3-1.9-1.7-3.5-3.8-1.6-2.1-2.8-4.5h5.5q1.5 0.1 2.9 0.6 1.4 0.5 2.6 1.4 1.2 1 2 2.3 0.8 1.3 1.1 2.8l1.2 6.4q-2.5-0.9-4.7-2.2z"/>
			<path id="Layer" class="s6" d="m235.4 120.2c1.2 0.5 2.2 1.2 3.1 2.1 0.9 0.9 1.6 2 2.1 3.1 0.5 1.2 0.8 2.5 0.8 3.7v0.6c0 1.3-0.3 2.5-0.8 3.7-0.5 1.2-1.2 2.2-2.1 3.1-0.9 0.9-1.9 1.7-3.1 2.1-1.2 0.5-2.4 0.8-3.7 0.8h-102.2c-5.4 0-9.7-4.3-9.7-9.7v-0.6c0-5.3 4.3-9.6 9.7-9.6h102.2c1.3 0 2.5 0.2 3.7 0.7z"/>
			<path id="Layer" class="s6" d="m215.7 112.6c0-5.5 4.4-10 9.9-10 5.5 0 10 4.5 10 10 0 5.5-4.5 10-10 10-5.5 0-9.9-4.5-9.9-10zm-89.5 0c0-5.5 4.5-10 10-10 5.5 0 10 4.5 10 10 0 5.5-4.5 10-10 10-5.5 0-10-4.5-10-10z"/>
			<path id="Layer" class="s7" d="m236.6 232.4q0.4-2.4 1.4-4.7 1-2.3 2.3-4.3 1.4-2.1 3.2-3.8 1.8-1.7 3.9-3 2.1-1.3 4.4-2.2 2.2-1 4.7-1.4 2.4-0.5 4.9-0.4 2.4 0 4.8 0.5 2.5 0.5 4.7 1.5 2.3 1 4.3 2.4 2 1.4 3.8 3.2 1.7 1.7 3 3.8l63.2 95.1q1.3 2.1 2.3 4.3 0.9 2.3 1.3 4.7 0.5 2.5 0.4 4.9 0 2.5-0.6 4.9-0.5 2.4-1.4 4.7-1 2.3-2.4 4.3-1.4 2-3.1 3.7-1.8 1.7-3.9 3-2.1 1.4-4.4 2.3-2.3 0.9-4.7 1.3-2.4 0.5-4.9 0.5-2.4-0.1-4.8-0.6-2.5-0.5-4.7-1.5-2.3-0.9-4.3-2.3-2.1-1.4-3.8-3.2-1.7-1.8-3-3.8l-63.2-95.1q-1.3-2.1-2.3-4.4-0.9-2.2-1.3-4.7-0.5-2.4-0.4-4.8 0-2.5 0.6-4.9z"/>
			<path id="Layer" class="s7" d="m350.7 411.9c0 13.9-11.2 25.1-25.1 25.1-13.8 0-25.1-11.2-25.1-25.1v-76c0-13.8 11.3-25 25.1-25 13.9 0 25.1 11.2 25.1 25z"/>
			<circle id="Layer" class="s8" cx="326" cy="412" r="25"/>
			<path id="Layer" class="s7" d="m122.2 243.3q-0.3 1.2-0.7 2.3-0.4 1.2-0.9 2.3-0.5 1.1-1.2 2.2-0.6 1-1.3 2l-72.7 100.9q-1.4 2-3.2 3.7-1.8 1.7-3.9 3-2.1 1.3-4.4 2.2-2.3 0.8-4.8 1.2-2.4 0.4-4.9 0.4-2.5-0.1-4.9-0.7-2.4-0.5-4.6-1.6-2.3-1-4.2-2.5-2.1-1.4-3.8-3.2-1.7-1.7-3-3.8-1.3-2.1-2.1-4.4-0.9-2.3-1.2-4.8-0.4-2.4-0.4-4.9 0.1-2.4 0.6-4.8 0.6-2.4 1.6-4.7 1-2.2 2.5-4.2l72.7-100.9q1.4-2 3.2-3.7 1.8-1.7 3.9-3 2.1-1.3 4.4-2.2 2.3-0.8 4.8-1.2 2.4-0.4 4.9-0.3 2.4 0.1 4.8 0.6 2.4 0.6 4.7 1.6 2.2 1 4.2 2.5 2.1 1.4 3.8 3.2 1.7 1.7 3 3.8 1.3 2.1 2.1 4.5 0.9 2.3 1.2 4.7c0.6 3.3 0.5 6.6-0.2 9.8z"/>
			<path id="Layer" class="s7" d="m281 562.9h-211.9l33-350.4h157.1z"/>
			<path id="Layer" class="s7" d="m93.1 382.2l172.7-44.8 7.5 155.7m-136.1-143.7q-1.9 1.6-4 2.7-2.2 1.2-4.6 1.9-2.3 0.7-4.8 0.9l-96.3 8.4q-2.5 0.3-4.9 0.1-2.5-0.2-4.9-0.9-2.3-0.8-4.5-1.9-2.2-1.2-4-2.8-2-1.6-3.5-3.5-1.6-1.9-2.8-4.1-1.1-2.1-1.8-4.5-0.7-2.4-0.9-4.8-0.3-2.5-0.1-4.9 0.2-2.5 0.9-4.8 0.7-2.4 1.9-4.6 1.2-2.1 2.8-4 1.5-1.9 3.4-3.5 1.9-1.6 4.1-2.8 2.1-1.1 4.5-1.8 2.3-0.7 4.8-1l96.3-8.4q1.2-0.1 2.4-0.1 1.3 0 2.5 0.1 1.2 0.2 2.4 0.4 1.2 0.2 2.4 0.6c2.4 0.7 4.6 1.7 6.7 3.1 2 1.4 3.9 3 5.4 4.9 1.6 1.9 2.9 4.1 3.8 6.3 1 2.3 1.6 4.7 1.8 7.2q0.3 2.4 0.1 4.9-0.2 2.4-1 4.8-0.7 2.4-1.9 4.5-1.1 2.2-2.7 4.1-1.6 1.9-3.5 3.5z"/>
			<path id="Layer" class="s6" d="m254.9 683.3h-162.5l24.9-406.8 125.1 0.7z"/>
			<circle id="Layer" class="s8" cx="121.4" cy="329.9" r="24.9"/>
			<path id="Layer" class="s6" d="m226.7 98.8c0.6 1.7 1.4 1.7 1 3.6l-7.5 34.7q-0.2 0.9-0.6 1.8-0.4 0.9-1 1.7-0.5 0.8-1.2 1.5-0.7 0.7-1.5 1.2-0.9 0.6-1.8 1-0.9 0.3-1.9 0.5-1 0.2-1.9 0.2-1-0.1-2-0.3-1-0.2-1.9-0.6-0.8-0.4-1.7-0.9-0.8-0.6-1.4-1.3-0.7-0.7-1.3-1.5-0.5-0.8-0.9-1.7-0.4-0.9-0.6-1.9-0.2-1-0.2-2 0.1-1 0.3-1.9l6.4-30-6.7-18.5-37.3 4.6q-0.2 0.2-0.3 0.4l-8 9.6 6.6 34q0.2 1 0.2 2 0 1-0.2 1.9-0.2 1-0.6 1.9-0.4 0.9-1 1.7-0.5 0.8-1.2 1.5-0.7 0.8-1.5 1.3-0.8 0.5-1.8 0.9-0.9 0.4-1.9 0.5-0.9 0.2-1.9 0.2-1 0-1.9-0.2-1-0.1-1.9-0.5-0.9-0.4-1.7-1-0.4-0.2-0.8-0.5-0.4-0.3-0.7-0.7-0.4-0.3-0.7-0.7-0.3-0.4-0.6-0.8c-0.7-1.1-1.2-2.3-1.4-3.6l-7.3-34.5c-0.3-1.5 1.9-7.2 2.3-8.6 0.3-1.4-1.5-2.7-0.6-3.9l11-13.2q0.1-0.1 0.2-0.2 0.1-0.1 0.1-0.2 0.1-0.1 0.2-0.2 0.1-0.1 0.2-0.2-0.5-0.7-0.9-1.4-0.3-0.8-0.5-1.6-0.2-0.9-0.3-1.7 0-0.9 0.1-1.7c0.1-1.3 0.4-2.6 1-3.8 0.6-1.1 1.5-2.2 2.5-3 1-0.9 2.2-1.5 3.4-1.9 1.3-0.4 2.6-0.5 3.9-0.4l51.4 4.6q0.7 0.1 1.4 0.2 0.7 0.2 1.3 0.4 0.7 0.3 1.3 0.7 0.6 0.3 1.2 0.8 0.5 0.4 1 0.9 0.5 0.5 1 1.1 0.4 0.6 0.7 1.2 0.3 0.6 0.6 1.3z"/>
			<path id="Layer" class="s9" d="m138.2 119.5q1.1-0.1 2.1 0.1 1 0.2 2 0.6 0.9 0.4 1.8 0.9 0.9 0.5 1.6 1.2 0.8 0.7 1.4 1.6 0.6 0.8 1 1.8 0.4 0.9 0.6 1.9l5 21.6q0.2 1 0.3 2 0 1.1-0.2 2.1-0.1 1.1-0.5 2.1-0.4 0.9-0.9 1.8-0.6 0.9-1.3 1.7-0.8 0.7-1.6 1.3-0.9 0.6-1.9 1-0.9 0.4-1.9 0.6c-1.4 0.4-2.8 0.4-4.2 0.2-1.3-0.3-2.7-0.8-3.8-1.5-1.2-0.8-2.2-1.7-3-2.9-0.9-1.1-1.4-2.4-1.7-3.8l-4.9-21.5q-0.2-1-0.3-2 0-1.1 0.2-2.1 0.1-1 0.5-2 0.4-0.9 1-1.8 0.6-0.9 1.3-1.7 0.7-0.7 1.5-1.3 0.9-0.6 1.9-1 0.9-0.4 2-0.6 1-0.3 2-0.3zm91.4 6.7q0.4 1 0.5 2 0.2 1.1 0.1 2.1 0 1-0.3 2.1l-4.8 21.5c-0.3 1.3-0.9 2.6-1.7 3.8-0.8 1.1-1.8 2.1-3 2.8-1.2 0.8-2.5 1.3-3.9 1.5-1.3 0.2-2.7 0.2-4.1-0.1q-1-0.2-2-0.7-0.9-0.4-1.8-1-0.9-0.6-1.6-1.3-0.7-0.8-1.3-1.6-0.6-0.9-0.9-1.9-0.4-1-0.6-2-0.1-1.1-0.1-2.1 0-1.1 0.3-2.1l4.9-21.5q0.2-1.1 0.7-2 0.4-0.9 1-1.8 0.6-0.8 1.3-1.5 0.8-0.7 1.6-1.2 0.9-0.6 1.9-1 0.9-0.4 2-0.6 1-0.1 2-0.1 1.1 0 2.1 0.3 1 0.2 2 0.6 1 0.4 1.8 1 0.9 0.6 1.6 1.3 0.7 0.8 1.3 1.7 0.6 0.9 1 1.8z"/>
			<path id="Layer" class="s10" d="m210.5 169.2v47h-59.7v-47z"/>
			<path id="Layer" class="s9" d="m201.3 80.8c3.2 1.3 6.2 3.3 8.7 5.8 2.5 2.4 4.5 5.3 5.9 8.6 1.4 3.2 2.1 6.6 2.2 10.1v62.2c-0.1 3.5-0.8 7-2.2 10.2-1.4 3.2-3.4 6.1-5.9 8.6-2.5 2.4-5.5 4.4-8.7 5.7-3.3 1.4-6.8 2.1-10.3 2.1h-20.7q-2.7 0-5.4-0.5-2.6-0.5-5.1-1.5-2.5-1.1-4.7-2.6-2.2-1.5-4.1-3.4-1.9-1.8-3.4-4-1.4-2.1-2.5-4.5-1-2.4-1.5-4.9-0.6-2.6-0.6-5.2v-62.2q0-2.6 0.5-5.1 0.6-2.6 1.6-5 1-2.4 2.5-4.5 1.5-2.2 3.4-4 1.9-1.9 4.1-3.4 2.2-1.5 4.7-2.6 2.5-1 5.1-1.5 2.7-0.5 5.4-0.5h20.7c3.5 0 7 0.8 10.3 2.1z"/>
			<path id="Layer" class="s7" d="m181.7 217.7l51.5-31.3v33.9h-104.2v-33.9z"/>
			<path id="Layer" fill-rule="evenodd" class="s6" d="m135 278.1l-17.6 1.9-7.7-71.4 17.6-1.9zm97.5-71.3l-7.7 71.3 17.6 1.9 7.7-71.3zm42.8 217.5l-194.9-0.3-1.2 19 197.2 0.3z"/>
			<path id="Layer" class="s7" d="m224.9 101.9c-6.6-6.8-26.8-11.7-45.4-11.6-17.7 0-35.4 5.3-42.5 11.7-1.1 1-1.9 0.8-2.4 0.4q-0.1-0.1-0.2-0.1-0.1-0.1-0.2-0.2-0.1-0.1-0.2-0.2 0-0.2-0.1-0.3 0-0.1-0.1-0.2 0-0.1-0.1-0.3 0-0.1 0-0.2 0-0.2 0-0.3v-36.4h94.8v36.3c0 1.9-1.9 3.1-3.6 1.4z"/>
			<path id="Layer" class="s7" d="m134.3 65.2c-0.5-0.2-13.3-14.6-23.3-27.3-6.1-7.8-2.3-18 6.2-22.9 13.8-7.9 23.7-15 55.7-15 51.2 0 78.5 35.8 81.9 39.2 3.3 3.4 4.7 11.2-7.4 18.9q-2.5 1.6-5 3.3-2.5 1.7-5 3.4-2.5 1.8-4.9 3.6-2.4 1.8-4.7 3.7z"/>
			<path id="Layer" class="s11" d="m203.3 404.2q-0.6 0-1.1-0.1-0.6-0.1-1.1-0.3-0.6-0.2-1-0.5-0.5-0.2-1-0.6l-57.1-48.4q-0.5-0.4-0.9-0.9-0.3-0.5-0.6-1.1-0.3-0.5-0.5-1.2-0.2-0.6-0.2-1.2-0.1-0.9 0.1-1.9 0.2-0.9 0.7-1.7 0.4-0.9 1.1-1.5 0.7-0.7 1.5-1.1 0.6-0.3 1.2-0.5 0.6-0.1 1.2-0.2 0.7 0 1.3 0 0.6 0.1 1.2 0.3 0.3 0.1 0.6 0.2 0.3 0.1 0.6 0.3 0.2 0.1 0.5 0.3 0.3 0.2 0.5 0.4l57.2 48.4c1 0.9 1.7 2 2 3.3 0.4 1.2 0.3 2.6-0.2 3.8-0.4 1.2-1.2 2.3-2.3 3.1-1.1 0.7-2.4 1.1-3.7 1.1z"/>
			<path id="Layer" class="s9" d="m133.3 356.4c0 1.6-0.6 3.1-1.8 4.2-1.1 1.2-2.6 1.8-4.2 1.8-1.6 0-3.1-0.6-4.2-1.8-1.1-1.1-1.8-2.6-1.8-4.2v-20.6c0-1.6 0.7-3.1 1.8-4.3 1.1-1.1 2.6-1.7 4.2-1.7 1.6 0 3.1 0.6 4.2 1.7 1.2 1.2 1.8 2.7 1.8 4.3z"/>
			<path id="Layer" class="s9" d="m145.1 362.1c0 1.6-0.6 3.1-1.8 4.2-1.1 1.1-2.6 1.8-4.2 1.8-1.6 0-3.1-0.7-4.2-1.8-1.2-1.1-1.8-2.6-1.8-4.2v-20.7c0-1.5 0.6-3.1 1.8-4.2 1.1-1.1 2.6-1.7 4.2-1.7 1.6 0 3.1 0.6 4.2 1.7 1.2 1.1 1.8 2.7 1.8 4.2z"/>
			<path id="Layer" class="s9" d="m157.2 363.8c0 1.6-0.6 3.1-1.8 4.3-1.1 1.1-2.6 1.8-4.2 1.8-1.7 0-3.2-0.7-4.3-1.8-1.2-1.2-1.8-2.7-1.8-4.3v-20.9c0-1.6 0.6-3.1 1.8-4.3 1.1-1.1 2.6-1.7 4.3-1.7 1.6 0 3.1 0.6 4.2 1.7 1.2 1.2 1.8 2.7 1.8 4.3z"/>
			<path id="Layer" class="s9" d="m163.4 381.6q-0.2 0-0.4 0-0.1 0-0.3 0-0.2-0.1-0.4-0.1-0.2 0-0.3-0.1-1.3-0.2-2.3-1-1-0.7-1.7-1.8-0.7-1.1-0.9-2.3-0.2-1.3 0-2.5c1.2-5.3 2.5-12.3 3-15.4l-8.3-24.2q-0.5-1.2-0.4-2.5 0.1-1.3 0.6-2.4 0.6-1.2 1.6-2 0.9-0.8 2.1-1.3 1.2-0.4 2.5-0.3 1.3 0.1 2.4 0.6 1.1 0.6 2 1.5 0.8 1 1.3 2.2l8.9 25.7q0.1 0.4 0.2 0.8 0.1 0.4 0.1 0.8 0.1 0.4 0 0.8 0 0.4 0 0.8c-0.1 0.5-1.9 10.5-3.5 17.7q-0.3 1.1-0.8 2-0.6 0.9-1.4 1.6-0.9 0.7-1.9 1-1 0.4-2.1 0.4z"/>
			<path id="Layer" class="s9" d="m164 338.9l-3.1 7.3c-2.4 5.9-9.3 8.7-15.2 6.2l-34.9-14.5c-6-2.5-8.8-9.3-6.3-15.3l3-7.2c2.5-5.9 9.3-8.7 15.2-6.3l35 14.6c5.9 2.5 8.7 9.3 6.3 15.2z"/>
			<rect id="Layer" class="s9" x="67.1" y="307.8" width="61.1" height="31.1" rx="11.6"></rect>
			<path id="Layer" class="s12" d="m224.7 389.6c0 0 68.4-0.3 68.4 0 0 37.4-30.9 68.3-68.4 68.3-37.5 0-68.3-30.9-68.3-68.3z"/>
			<path id="Layer" class="s9" d="m269.4 393.5l13-0.2q0.2 0 0.4 0 0.2 0 0.4 0.1 0.3 0 0.5 0 0.2 0.1 0.4 0.2l0.6 0.2 23.6 7.4c2.1 0.7 3.9 2.2 4.8 4.2 1 2.1 1 4.4 0.2 6.5-0.9 2.1-2.6 3.7-4.7 4.5-2.1 0.8-4.4 0.6-6.4-0.4l-22-11.2 2.3 0.4-13 0.2q-0.6 0.1-1.2 0-0.7 0-1.3-0.2-0.6-0.2-1.1-0.5-0.6-0.3-1.1-0.7-0.7-0.7-1.2-1.5-0.5-0.8-0.7-1.7-0.2-1-0.1-1.9 0.1-1 0.5-1.9 0.3-0.8 1-1.5 0.6-0.8 1.4-1.2 0.9-0.5 1.8-0.7 0.9-0.2 1.9-0.1z"/>
			<path id="Layer" class="s9" d="m273.1 421.7h-35q-1.1-0.2-2-0.7-1-0.5-1.8-1.3-0.7-0.8-1.1-1.9-0.4-1-0.4-2.1 0-1.1 0.4-2.2 0.4-1 1.1-1.8 0.8-0.8 1.8-1.3 0.9-0.5 2-0.7h34.2l21.5-6.1q0.9-0.4 1.9-0.5 0.9-0.1 1.9 0.1 0.9 0.2 1.7 0.7 0.9 0.5 1.5 1.3 0.2 0.2 0.4 0.5 0.1 0.2 0.3 0.5 0.1 0.3 0.3 0.6 0.1 0.3 0.2 0.6 0.2 0.6 0.2 1.2 0 0.7 0 1.3-0.1 0.6-0.4 1.2-0.2 0.6-0.5 1.2-0.4 0.5-0.8 1-0.4 0.4-1 0.8-0.5 0.3-1.1 0.6-0.6 0.2-1.2 0.3l-22.4 6.4q-0.2 0.1-0.4 0.1-0.2 0.1-0.4 0.1-0.2 0-0.4 0-0.2 0.1-0.5 0.1z"/>
			<path id="Layer" class="s9" d="m274.6 433.6h-35q-1.1-0.1-2-0.6-1-0.5-1.8-1.3-0.7-0.8-1.1-1.9-0.4-1-0.4-2.1 0-1.1 0.4-2.2 0.4-1 1.1-1.8 0.8-0.9 1.8-1.4 0.9-0.5 2-0.6h34.2l21.5-6.2c1.5-0.2 3 0.1 4.2 0.9 1.3 0.7 2.2 2 2.6 3.4 0.4 1.4 0.3 2.9-0.3 4.3-0.7 1.3-1.8 2.3-3.1 2.9l-22.4 6.4q-0.2 0.1-0.4 0.1-0.2 0-0.4 0.1-0.2 0-0.4 0-0.3 0-0.5 0z"/>
			<path id="Layer" class="s9" d="m281.4 443.4h-35q-0.6 0-1.3 0-0.6-0.1-1.2-0.3-0.6-0.2-1.2-0.5-0.5-0.3-1-0.7c-1-0.9-1.6-2-1.9-3.2-0.2-1.3-0.1-2.6 0.4-3.7 0.5-1.2 1.4-2.2 2.5-2.8 1.1-0.6 2.4-0.9 3.7-0.7h34.1l21.6-6.2q1.1-0.2 2.2 0 1 0.2 2 0.8 0.9 0.6 1.6 1.5 0.7 0.9 1 1.9 0.3 1.1 0.2 2.2-0.1 1.1-0.6 2.1-0.5 1-1.3 1.8-0.8 0.7-1.8 1.2l-22.4 6.4q-0.2 0-0.4 0-0.2 0.1-0.4 0.1-0.2 0-0.4 0.1-0.2 0-0.4 0z"/>
			<path id="Layer" class="s9" d="m258.3 451.9c-1.4-0.1-2.7-0.6-3.8-1.5-1-0.9-1.7-2.1-1.9-3.5-0.3-1.3 0-2.7 0.6-3.9 0.7-1.2 1.7-2.2 3-2.7l23.1-8.5c1.1-0.3 2.2-0.2 3.3 0.1 1 0.3 2 1 2.7 1.8 0.7 0.8 1.2 1.8 1.4 2.9 0.2 1.1 0.1 2.2-0.4 3.3q-0.2 0.5-0.5 0.9-0.2 0.5-0.6 0.9-0.4 0.4-0.8 0.7-0.5 0.4-1 0.6l-23.1 8.5q-1 0.4-2 0.4z"/>
			<path id="Layer" class="s9" d="m341.6 406.7l0.1 0.5c2.5 8.9-2.6 18.1-11.4 20.5l-39.3 11.1c-8.8 2.5-18-2.7-20.5-11.6l-0.1-0.4c-2.5-8.9 2.6-18.1 11.4-20.6l39.3-11c8.8-2.5 18 2.7 20.5 11.5z"/>
			<path id="Layer" class="s9" d="m342.1 412.5c0 8.6-7 15.6-15.6 15.6-8.6 0-15.6-7-15.6-15.6v-9.9c0-8.6 7-15.6 15.6-15.6 8.6 0 15.6 7 15.6 15.6z"/>
			<path id="Layer" class="s13" d="m562.1 635.5l34.4 9.9-37.9 117.3-34.7 0.3z"/>
			<path id="Layer" class="s6" d="m534.3 799l-14.9 19.8-67.4-0.3q8.4-13.8 31.1-21.7 30.8-8 31.2-38.6h49.6l-6.5 60.8-22.1-0.1z"/>
			<path id="Layer" class="s13" d="m572.9 467.7q0.8 0 1.7 0 0.9 0.1 1.8 0.2 0.9 0.2 1.7 0.5 0.8 0.3 1.6 0.7 0.8 0.4 1.5 0.9 0.8 0.6 1.4 1.2 0.6 0.6 1.2 1.3 0.5 0.7 1 1.5l7.1 12.3q0.3 0.6 0.5 1.2l7.4 3.1c0.9 0.4 1.7 0.9 2.3 1.7q0.2 0.3 0.4 0.6 0.2 0.3 0.3 0.6 0.1 0.4 0.2 0.7 0.1 0.4 0.2 0.7l2.4 17.4q0.2 1.1-0.1 2.2-0.2 1.1-0.9 2-0.7 0.9-1.6 1.4-1 0.6-2.1 0.7-0.5 0.1-1.1 0.1-0.5-0.1-1.1-0.2-0.5-0.1-1-0.4-0.4-0.2-0.9-0.6-0.2-0.2-0.5-0.4-0.2-0.2-0.4-0.5-0.2-0.2-0.4-0.5-0.2-0.3-0.3-0.6l0.3 3.7q0.1 0.9 0 1.7-0.2 0.8-0.6 1.5-0.4 0.7-0.9 1.3-0.6 0.6-1.4 1-0.2 0.1-0.5 0.2-0.2 0.1-0.5 0.2-0.2 0.1-0.5 0.1-0.3 0.1-0.6 0.1-0.5 0.1-1 0-0.6 0-1.1-0.2-0.5-0.2-1-0.4-0.4-0.3-0.9-0.6-0.1-0.2-0.3-0.3-0.2-0.2-0.3-0.3-0.2-0.2-0.3-0.4-0.1-0.2-0.3-0.4-0.1 0.2-0.2 0.4-0.1 0.2-0.2 0.4-0.1 0.2-0.2 0.4-0.1 0.2-0.3 0.4-0.3 0.4-0.8 0.7-0.4 0.4-0.9 0.6-0.5 0.3-1 0.4-0.5 0.2-1.1 0.2-0.5 0.1-1 0.1-0.6-0.1-1.1-0.2-0.5-0.2-1-0.5-0.5-0.2-0.9-0.6-0.1-0.1-0.3-0.2-0.2-0.2-0.3-0.4-0.2-0.1-0.3-0.3-0.1-0.2-0.3-0.3 0 0.2-0.1 0.4-0.1 0.1-0.2 0.3-0.2 0.2-0.3 0.4-0.1 0.2-0.2 0.3-0.4 0.4-0.8 0.8-0.4 0.3-0.9 0.6-0.5 0.2-1 0.4-0.5 0.1-1.1 0.2-0.3 0-0.5 0-0.3 0-0.6 0-0.2 0-0.5-0.1-0.3 0-0.5-0.1-0.3-0.1-0.5-0.2-0.3-0.1-0.5-0.2-0.2-0.1-0.5-0.3-0.2-0.1-0.4-0.3-0.4-0.3-0.8-0.8-0.3-0.4-0.6-0.9-0.3-0.5-0.4-1-0.2-0.5-0.2-1.1l-2.9-29.5-0.5-11.9c-0.1-1.6 0.2-3.2 0.7-4.7 0.5-1.5 1.3-2.9 2.4-4.1 1.1-1.2 2.3-2.2 3.8-2.9 1.4-0.8 3-1.2 4.6-1.3z"/>
			<path id="Layer" class="s14" d="m569 495.1h-1.5q-2.2-0.1-4.4-0.7-2.2-0.6-4.3-1.6-2-1-3.8-2.4-1.8-1.4-3.3-3.1-1.5-1.7-2.6-3.7-1.1-1.9-1.8-4.1-0.8-2.1-1.1-4.4-0.3-2.2-0.1-4.5l8.6-132.1q0-0.4 0-0.8 0.1-0.4 0.1-0.8 0.1-0.4 0.1-0.8 0.1-0.3 0.2-0.7l24.4-119.4c0.6-2.9 1.8-5.7 3.5-8.2 1.7-2.5 3.8-4.7 6.3-6.3 2.6-1.7 5.4-2.8 8.3-3.4 3-0.6 6-0.6 9 0.1 3 0.6 5.8 1.7 8.3 3.4 2.5 1.7 4.6 3.9 6.3 6.4 1.6 2.5 2.8 5.3 3.3 8.3 0.6 3 0.6 6 0 9l-24.1 117.8-8.5 130.5c-0.2 2.9-0.9 5.7-2.1 8.3-1.3 2.7-3 5-5.1 7-2.1 2-4.6 3.5-7.2 4.6-2.7 1-5.6 1.6-8.5 1.6z"/>
			<path id="Layer" class="s6" d="m662.4 498.3l-76.3 226.3-62.2-14.7 70.4-292.6h93.4"/>
			<path id="Layer" class="s13" d="m694.3 674.4l33.8-1.8 4.6 87.6-33.9 2.8z"/>
			<path id="Layer" class="s6" d="m697.4 818.5l-2.2-64.4h42.8l2.3 64.4z"/>
			<path id="Layer" fill-rule="evenodd" class="s6" d="m768.5 803q1.7 2.2 3 4.7 1.3 2.5 2.2 5.2 0.9 2.7 1.3 5.5h-71q0.4-2.8 1.2-5.5 0.9-2.7 2.2-5.2 1.3-2.5 3-4.8 1.7-2.2 3.8-4.2 2.4-2.5 5.4-4.5 2.9-2 6.1-3.3 3.3-1.4 6.8-2 3.5-0.7 7-0.6 3.5-0.1 7 0.6 3.5 0.7 6.7 2 3.3 1.4 6.2 3.3 3 2 5.4 4.5 2.1 2 3.7 4.3zm-109.6-381.6l14 306.1 82.9-4.5-28.2-305.7z"/>
			<path id="Layer" class="s15" d="m628.3 196h70.5l-6.1 69.7h-64.4z"/>
			<path id="Layer" class="s16" d="m660.7 455.5c-52 0-66.4-38.2-66.4-38.2l14.8-221.3h19.2v69.7h64.4l6.1-69.7h23.4l5.4 221.3c0 0-14.9 38.2-66.9 38.2z"/>
			<path id="Layer" class="s3" d="m696.4 302.1c-1.4 0-2.8-0.3-4.1-0.8-1.3-0.5-2.5-1.3-3.5-2.3-1-1-1.7-2.2-2.3-3.5-0.5-1.3-0.8-2.7-0.8-4.1q-0.1-1.1 0.1-2.1 0.2-1.1 0.7-2 0.4-1 1-1.9 0.6-0.9 1.3-1.6 0.8-0.8 1.6-1.4 0.9-0.6 1.9-1 1-0.4 2-0.6 1-0.2 2.1-0.1c1.4-0.1 2.8 0.2 4.1 0.7 1.3 0.6 2.5 1.4 3.5 2.4 1 1 1.8 2.2 2.4 3.5 0.5 1.3 0.8 2.7 0.7 4.1q0.1 1.1-0.1 2.1-0.2 1-0.6 2-0.4 1-1 1.9-0.6 0.9-1.4 1.6-0.7 0.8-1.6 1.4-0.9 0.6-1.9 1-0.9 0.4-2 0.6-1 0.2-2.1 0.1zm-73.8-3.7q-0.8 0.8-1.6 1.4-0.9 0.6-1.9 1-1 0.4-2 0.6-1.1 0.2-2.2 0.2c-1.4 0-2.8-0.3-4.1-0.9-1.2-0.5-2.4-1.3-3.4-2.3-1-1-1.8-2.2-2.4-3.4-0.5-1.3-0.8-2.7-0.8-4.1q0-1.1 0.2-2.2 0.2-1 0.6-2 0.4-1 1-1.9 0.6-0.8 1.4-1.6 0.7-0.7 1.6-1.3 0.9-0.6 1.8-1 1-0.4 2-0.6 1.1-0.2 2.1-0.2c1.5 0 2.9 0.3 4.2 0.8 1.3 0.5 2.5 1.3 3.5 2.3 1 1 1.8 2.2 2.3 3.5 0.5 1.3 0.8 2.7 0.8 4.2q0 1-0.2 2.1-0.2 1-0.6 2-0.4 0.9-1 1.8-0.6 0.9-1.3 1.6z"/>
			<path id="Layer" class="s14" d="m725.9 195.9q27.2 4.2 27.2 35.7l35.8 252.5-83.4 0.7v-289.6h11.2q1.2 0 2.3 0 1.2 0.1 2.3 0.2 1.2 0.1 2.3 0.2 1.2 0.1 2.3 0.3z"/>
			<path id="Layer" class="s14" d="m747.2 496.6c-3.2 0-6.4-0.6-9.3-1.9-3-1.4-5.6-3.3-7.7-5.7-2.2-2.4-3.8-5.2-4.8-8.2-1-3.1-1.4-6.4-1-9.6l13.4-125.7-30.5-118.4c-0.7-2.9-0.8-5.9-0.3-8.9 0.4-2.9 1.4-5.8 3-8.3 1.5-2.6 3.5-4.8 5.9-6.6 2.4-1.8 5.1-3.1 8-3.8 2.9-0.7 5.9-0.9 8.9-0.5 2.9 0.4 5.8 1.4 8.4 2.9 2.5 1.5 4.8 3.4 6.6 5.8 1.8 2.4 3.2 5 4 7.9l31.5 122.5c0.7 2.6 0.9 5.4 0.6 8.1l-13.9 129.9c-0.3 2.8-1.1 5.5-2.3 8-1.3 2.5-3 4.8-5.1 6.6-2.1 1.9-4.5 3.4-7.1 4.4-2.7 1-5.5 1.5-8.3 1.5z"/>
			<path id="Layer" class="s6" d="m621 83.4q4-4 8.8-7.2 4.7-3.2 10-5.4 5.3-2.2 10.9-3.2 5.6-1.1 11.3-1 24 0 41 16.8 17 16.9 16.9 41.1 0 24.1-16.9 41-4 4.1-8.7 7.4-4.7 3.2-10 5.4-5.3 2.2-10.9 3.3-5.7 1-11.4 0.9-23.9 0-41-17c-11.2-11.2-16.4-24.9-16.9-41-1.4-49.4 5.7-29.8 16.9-41.1z"/>
			<path id="Layer" class="s6" d="m706.7 42.7q2 2.1 3.5 4.6 1.6 2.5 2.6 5.3 0.9 2.7 1.3 5.6 0.5 2.9 0.3 5.8c-0.3 3.8-1.3 7.6-2.9 11.1-1.7 3.5-4 6.6-6.9 9.2-2.9 2.6-6.2 4.6-9.8 6-3.7 1.3-7.5 1.9-11.4 1.8-2.9-0.1-5.7-0.7-8.5-1.6-2.7-1-5.3-2.4-7.7-4.1-2.3-1.7-4.4-3.8-6.1-6.1-1.7-2.4-3.1-4.9-4.1-7.7-1-2.7-1.6-5.6-1.7-8.5-0.1-2.9 0.2-5.8 0.9-8.6 0.7-2.8 1.8-5.5 3.3-8 1.5-2.5 3.4-4.8 5.5-6.7q2.1-2 4.6-3.6 2.5-1.5 5.2-2.5 2.7-1 5.6-1.4 2.9-0.4 5.8-0.3 2.9 0.2 5.7 0.9 2.9 0.7 5.5 1.9 2.7 1.3 5 3 2.4 1.7 4.3 3.9z"/>
			<path id="Layer" class="s13" d="m639.9 210.4v-37.6c-0.1-2.9 0.5-5.8 1.6-8.4 1.1-2.7 2.7-5.2 4.7-7.2 2.1-2 4.5-3.6 7.2-4.7 2.7-1.1 5.5-1.7 8.4-1.7h0.1c2.2 0 4.3 0.4 6.4 1 2 0.6 4 1.5 5.8 2.7 1.8 1.2 3.4 2.7 4.8 4.4 1.3 1.6 2.4 3.5 3.3 5.5q0.4 1 0.7 2 0.3 1 0.5 2.1 0.2 1.1 0.3 2.1 0.1 1.1 0.1 2.2v37.6m0 0c0 2.2-0.3 4.3-0.9 6.4-0.6 2.1-1.6 4-2.8 5.8-1.2 1.8-2.6 3.4-4.3 4.8-1.7 1.3-3.5 2.5-5.5 3.3q-1 0.4-2.1 0.7-1 0.3-2.1 0.5-1 0.2-2.1 0.3-1.1 0.1-2.1 0.1h-0.1q-2.2 0.1-4.3-0.4-2.1-0.4-4.1-1.2-2-0.8-3.8-2-1.8-1.2-3.4-2.7-0.7-0.8-1.4-1.6-0.7-0.9-1.3-1.8-0.6-0.9-1.1-1.8-0.5-1-0.9-2-0.4-1-0.7-2-0.3-1-0.5-2.1-0.2-1.1-0.3-2.1-0.1-1.1-0.1-2.2"/>
			<path id="Layer" class="s13" d="m621.3 107.2q-0.1-3.7 0.6-7.3 0.7-3.7 2.2-7.1 1.4-3.4 3.5-6.5 2.1-3 4.7-5.6 2.6-2.6 5.6-4.7 3-2 6.4-3.4 3.4-1.4 7-2.1 3.6-0.7 7.3-0.6 3.6-0.1 7.3 0.6 3.6 0.7 7 2.1 3.4 1.4 6.5 3.4 3.1 2.1 5.6 4.7 2.7 2.6 4.7 5.7 2.1 3 3.4 6.4 1.4 3.5 2.1 7.1 0.7 3.6 0.7 7.3v41.6c0 3.7-0.5 7.3-1.6 10.8-1 3.5-2.6 6.9-4.6 9.9-2.1 3.1-4.5 5.8-7.4 8.2-2.8 2.3-6 4.2-9.4 5.6-3.4 1.4-6.9 2.3-10.6 2.6-3.6 0.4-7.3 0.2-10.9-0.6-3.6-0.7-7.1-2-10.3-3.7-3.2-1.8-6.2-4-8.8-6.6q-2.6-2.5-4.7-5.5-2.1-3-3.6-6.4-1.4-3.4-2.1-7-0.7-3.6-0.6-7.3z"/>
			<path id="Layer" class="s13" d="m693.2 126.7q0-0.2 0-0.4 0.1-0.2 0.1-0.4 0.1-0.2 0.1-0.4 0.1-0.2 0.2-0.4 0.4-1.1 1.1-2.1 0.7-1 1.6-1.8 0.9-0.7 2-1.2 1.1-0.5 2.3-0.7 0.4 0 0.8-0.1 0.4 0 0.8 0 0.4 0 0.8 0 0.4 0 0.8 0.1 0.9 0.1 1.7 0.4 0.9 0.3 1.6 0.8 0.8 0.4 1.4 1 0.7 0.6 1.2 1.3 0.6 0.7 0.9 1.5 0.4 0.8 0.6 1.6 0.3 0.9 0.3 1.7 0.1 0.9 0 1.8l-2.1 13.2q0 0.4-0.1 0.8-0.5 1.7-1.5 3.2-1.1 1.4-2.5 2.3-1.5 1-3.2 1.4-1.7 0.3-3.5 0.1-0.9-0.1-1.7-0.4-0.8-0.3-1.6-0.7-0.8-0.4-1.5-1-0.6-0.6-1.2-1.3-0.6-0.7-1-1.5-0.4-0.8-0.6-1.7-0.2-0.8-0.2-1.7-0.1-0.9 0.1-1.8l2.3-13.5zm-83.5 2.9q-0.1-0.6-0.1-1.3 0-0.6 0.1-1.3 0.1-0.6 0.2-1.2 0.2-0.7 0.5-1.3 0.2-0.4 0.4-0.9 0.3-0.4 0.6-0.8 0.3-0.4 0.6-0.7 0.4-0.4 0.8-0.7 0.5-0.4 1.1-0.7 0.5-0.4 1.1-0.6 0.6-0.3 1.3-0.4 0.6-0.2 1.2-0.3 0.9-0.1 1.8-0.1 1 0 1.8 0.2 0.9 0.2 1.8 0.6 0.8 0.3 1.6 0.9 0.7 0.4 1.4 1.1 0.6 0.6 1.1 1.3 0.5 0.8 0.8 1.6 0.3 0.9 0.3 1.8l2.1 13.5q0.2 0.9 0.2 1.8 0 0.9-0.2 1.8-0.3 0.8-0.7 1.6-0.4 0.8-1 1.5-0.5 0.7-1.2 1.3-0.7 0.6-1.4 1-0.8 0.4-1.7 0.7-0.8 0.3-1.7 0.4-0.9 0.1-1.8 0.1-0.8-0.1-1.7-0.3-0.9-0.2-1.7-0.5-0.8-0.4-1.5-0.9-0.8-0.5-1.4-1.1-0.6-0.6-1.1-1.3-0.5-0.8-0.8-1.6-0.3-0.8-0.5-1.6z"/>
			<path id="Layer" class="s6" d="m654.4 109.5l0.1-21.3-16.2 20.9-37 6c0-0.1 0.3-4 0.6-7.2q0.2-3.3 0.9-6.4 0.7-3.2 1.8-6.3 1.2-3 2.8-5.8 1.7-2.9 3.7-5.4 2.3-3 5.1-5.5 2.7-2.6 5.9-4.6 3.2-2 6.7-3.4 3.5-1.3 7.2-2.1 6.9-1 13.9-1.4 7-0.4 14-0.2 7 0.1 13.9 0.9 7 0.7 13.8 2 3.6 0.9 7 2.4 3.3 1.6 6.3 3.7 3 2.2 5.6 4.8 2.5 2.7 4.5 5.8 1.8 2.7 3.1 5.6 1.3 2.9 2.2 6 0.9 3.1 1.2 6.3 0.4 3.2 0.3 6.5c0 0-0.2 1.8 0 2z"/>
			<path id="Layer" class="s17" d="m653.6 149.7c2.8-0.1 5.7 0.8 8 2.5q3.2 2.6 3.2 6.1 0 0.9-0.2 1.7-0.2 0.9-0.6 1.7-0.5 0.8-1.1 1.5-0.6 0.6-1.3 1.2-0.9 0.6-1.8 1.1-1 0.5-2 0.9-1 0.3-2.1 0.5-1.1 0.1-2.1 0.1-1.1 0-2.2-0.1-1.1-0.2-2.1-0.5-1.1-0.4-2-0.9-1-0.5-1.8-1.1-0.8-0.6-1.4-1.2-0.6-0.7-1-1.5-0.5-0.8-0.7-1.7-0.2-0.8-0.2-1.7 0-3.5 3.3-6.1 0.8-0.7 1.8-1.1 1-0.5 2-0.8 1-0.3 2.1-0.5 1.1-0.1 2.2-0.1z"/>
			<path id="Layer" class="s14" d="m577.8 231.6q0-35.2 34.2-36.3l10.3 289.5-62.1-17.5z"/>
			<path id="Layer" class="s18" d="m727.5 510.1l1.3-16 49.3 3.3-0.2 15z"/>
			<path id="Layer" class="s4" d="m716 533.4l-0.1-27.8 13.1-12.7v40.7l47.5 0.4 1-37.3 12.5 15.9-0.5 21.5"/>
			<path id="Layer" class="s4" d="m689.8 531.4l125.6 1.1-1.2 133.9-133.4-1.2z"/>
			<path id="Layer" fill-rule="evenodd" class="s14" d="m734.5 578.7l14-2.9-2.9-14.5 9.7-1.9 2.9 14.5 2-17.2 9.8 1.1-2.9 25.4-5.7 12.6-24.5-5.5zm22.5 4.1c0.9 0.4 1.9 0.4 2.3-0.3q0.1-0.2 0.2-0.4 0.1-0.2 0.1-0.5 0.1-0.2 0-0.4 0-0.3-0.1-0.5-0.2-0.2-0.3-0.4-0.2-0.2-0.4-0.3-0.3-0.1-0.5-0.2-0.3 0-0.5 0-0.2 0-0.3 0.1-0.2 0-0.3 0.1-0.1 0.1-0.3 0.2-0.1 0.1-0.2 0.2 0 0.1-0.1 0.2 0 0.1-0.1 0.2 0 0.1 0 0.2-0.1 0.1-0.1 0.2c0 0.4-0.1 1.2 0.6 1.6zm-6.7-1q0.2 0.1 0.5 0.1 0.2 0.1 0.5 0.1 0.2-0.1 0.4-0.2 0.3 0 0.5-0.2 0.1-0.1 0.3-0.4 0.1-0.2 0.2-0.4 0-0.2 0-0.5 0-0.2 0-0.4c-0.1-0.5-0.7-0.9-1-1q-0.1 0-0.1-0.1-0.1 0-0.2 0 0 0-0.1 0-0.1 0-0.1 0c-0.5 0-1.5 0.1-1.7 0.9-0.2 1 0.1 1.9 0.8 2.1z"/>
			<path id="Layer" class="s16" d="m749.8 631.3l65-33.4-0.6 68.5-126.1-1.2 4.5-65.7z"/>
			<path id="Layer" class="s16" d="m827.9 667.8l-123.9-1.3 47.1-13 63.4-23.7z"/>
			<path id="Layer" fill-rule="evenodd" class="s18" d="m689.8 531.4l6.7 95.8 13.4 39.6-39.2-0.3 11.9-39.4zm95.4 12.6l0.1-13.6 25.4 0.3-0.2 13.5c-0.1 10.2 2.6 20.1 9.1 28l-25.4-0.3c0 0-9.2-8.6-9-27.9z"/>
			<path id="Layer" class="s16" d="m806.9 537v1.4l-17.5-0.2v-1.3zm-0.1 4.7v1.3l-17.5-0.2v-1.3zm-0.1 4.4v1.3l-17.5-0.1v-1.3zm0.4 4.7v1.3l-17.6-0.2v-1.3zm0.9 4.7l-0.1 1.3-17.5-0.1v-1.3z"/>
			<path id="Layer" class="s13" d="m756.3 467.2c1.6-0.1 3.2 0 4.7 0.5 1.6 0.4 3 1.2 4.3 2.2 1.2 1 2.3 2.2 3.1 3.6 0.8 1.4 1.3 2.9 1.5 4.5l1.6 11.9 2.4 29.5q0 0.6 0 1.1-0.1 0.6-0.3 1.1-0.1 0.5-0.4 1-0.3 0.5-0.6 0.9-0.4 0.4-0.8 0.7-0.4 0.4-0.9 0.6-0.5 0.3-1 0.4-0.5 0.1-1 0.2-0.3 0-0.6 0-0.3 0-0.5 0-0.3-0.1-0.6-0.1-0.2-0.1-0.5-0.1-0.3-0.1-0.5-0.2-0.3-0.1-0.5-0.3-0.2-0.1-0.5-0.3-0.2-0.1-0.4-0.3-0.6-0.6-1.1-1.3-0.1 0.2-0.2 0.4-0.1 0.2-0.2 0.4-0.1 0.2-0.3 0.3-0.1 0.2-0.2 0.4-0.4 0.4-0.8 0.7-0.4 0.4-0.9 0.6-0.5 0.3-1 0.4-0.5 0.1-1 0.2-0.6 0-1.1 0-0.6-0.1-1.1-0.2-0.5-0.2-1-0.5-0.5-0.2-0.9-0.6-0.7-0.6-1.2-1.3-0.3 0.8-0.9 1.5-0.3 0.4-0.7 0.7-0.5 0.4-0.9 0.6-0.5 0.3-1 0.4-0.5 0.2-1.1 0.2-0.2 0-0.5 0-0.3 0-0.6 0-0.2 0-0.5-0.1-0.3-0.1-0.5-0.1-0.8-0.3-1.5-0.7-0.7-0.5-1.2-1.2-0.5-0.6-0.8-1.4-0.3-0.8-0.4-1.6l-0.3-3.7q-0.1 0.3-0.2 0.6-0.1 0.3-0.3 0.6-0.1 0.3-0.3 0.6-0.2 0.2-0.4 0.5-0.4 0.4-0.8 0.7-0.5 0.3-1 0.5-0.5 0.3-1 0.4-0.5 0.1-1.1 0.1-0.5 0.1-1 0-0.6-0.1-1.1-0.3-0.5-0.2-1-0.5-0.4-0.2-0.8-0.6-0.5-0.4-0.8-0.8-0.3-0.5-0.5-1-0.2-0.5-0.4-1-0.1-0.5-0.1-1.1l-0.7-17.5q0-0.4 0-0.7 0.1-0.4 0.2-0.8 0-0.3 0.1-0.6 0.2-0.4 0.3-0.7 0.2-0.3 0.4-0.6 0.2-0.3 0.5-0.6 0.2-0.2 0.5-0.5 0.3-0.2 0.6-0.4l6.8-4.3q0-0.7 0.2-1.3l4.8-13.4q0.6-1.6 1.7-3.1 1.1-1.4 2.5-2.5 1.4-1.1 3.1-1.8 1.6-0.6 3.4-0.8z"/>
			<path id="Layer" class="s19" d="m417.1 487.7l-5.3 166.1-21.3-0.7 5.2-166.1"/>
			<path id="Layer" class="s20" d="m411.5 464.9q2.3 0.6 4.4 1.6 2.2 1 4.1 2.4 1.9 1.5 3.4 3.3c4.2 4.7 6.4 11 6 17.3-0.3 6.4-3.2 12.3-7.9 16.6-4.7 4.2-10.9 6.4-17.3 6.2-6.3-0.3-12.3-3.1-16.6-7.8-1.6-1.7-2.9-3.7-3.9-5.9-1.1-2.1-1.7-4.4-2.1-6.8-0.3-2.3-0.3-4.7 0-7.1 0.4-2.3 1.1-4.6 2.1-6.7 1-2.2 2.4-4.2 4-5.9 1.6-1.8 3.4-3.3 5.5-4.5 2-1.2 4.2-2.1 6.5-2.7 2.4-0.6 4.7-0.8 7.1-0.7q2.4 0.1 4.7 0.7z"/>
			<path id="Layer" class="s4" d="m451.8 884l-29.5-4.3-0.4-57.7 33 1.7z"/>
			<path id="Layer" class="s16" d="m454.9 823.7l-33-1.7-9-343 59.9-2.9z"/>
			<path id="Layer" class="s21" d="m471.2 931.2l-45.7-1.5-5.2-52.1 30.5-2.9z"/>
			<path id="Layer" class="s22" d="m513.5 309.6l60.1 135.9q0.4 1.5 0.6 3 0.1 1.5 0 3-0.1 1.5-0.4 3-0.3 1.4-0.9 2.8l-50.4 122.2 22.6 15c1.8 1.2 3.4 2.7 4.7 4.4 1.2 1.7 2.2 3.7 2.8 5.8 0.6 2 0.8 4.2 0.6 6.4-0.1 2.1-0.7 4.2-1.6 6.2l-19.2 41.7-33-15.3 12.7-27.5-22.1-14.5c-1.8-1.2-3.3-2.6-4.6-4.3-1.2-1.7-2.2-3.6-2.8-5.6-0.6-2-0.9-4.1-0.8-6.2 0.1-2.1 0.6-4.1 1.4-6.1l53.7-130.3-58.5-129.8z"/>
			<path id="Layer" class="s16" d="m572.5 305.9l-85.7 125.3-169.6-23-38.4-164.2z"/>
			<path id="Layer" class="s23" d="m591.2 116.2l-18.7 189.7-293.7-61.9 44.5-170.6z"/>
			<path id="Layer" class="s4" d="m378.3 740.8l-29.9 2.7 0.3-60.4h32.9z"/>
			<path id="Layer" class="s16" d="m389.8 593.8l-11 89.5h-33l-25.5-81.3 11.1-168.8 62.9-4.1z"/>
			<path id="Layer" class="s21" d="m378.2 783.9l-47.3-4.5 18.8-42.7 29 2.1z"/>
			<path id="Layer" class="s21" d="m411.1 939.2l3.6-71.4-62.6-3.2 4.6-88.9 21.3 1.1-3.5 67.5 62.7 3.2-4.8 92.8z"/>
			<path id="Layer" class="s24" d="m379.2 794.1l-59.6-2.7 0.9-17.6 59.5 2.7zm30.8 147l0.8-17.6 56.8 2.8-0.9 17.6z"/>
			<path id="Layer" class="s19" d="m348.6 873.5l4.1-232.8 93.9 4.2-10.5 234-21.3-0.9 9.5-212.8-50.6-2.2-3.8 210.8z"/>
			<path id="Layer" class="s4" d="m540.2 536.9l-12.9 31.4-33.7-13.9 12.9-31.4"/>
			<path id="Layer" class="s20" d="m571.9 474.3l-12.6 52.7q-0.7 3.1-2 6-1.3 2.8-3.2 5.4-1.8 2.5-4.2 4.7-2.3 2.1-5 3.7-2 1.3-4.2 2.2-2.2 0.9-4.5 1.5-2.3 0.6-4.6 0.9-2.4 0.2-4.7 0.1c-4.8-0.1-9.4-1.4-13.6-3.6-4.2-2.2-7.9-5.3-10.7-9.1-2.9-3.7-4.9-8.1-5.8-12.8-1-4.6-0.9-9.4 0.2-14l12.4-51.4z"/>
			<path id="Layer" class="s21" d="m516.2 301.9q2.6 1.8 4.8 4.1 2.2 2.2 3.9 4.9 1.7 2.7 2.8 5.6l47.4 119.5q0.9 2.2 1.5 4.6 0.5 2.4 0.7 4.9 0.2 2.4 0 4.9-0.2 2.5-0.8 4.8l-4.6 19.1-62.5-13.8 2.4-10.5-43.6-109.9c-1.7-4.4-2.5-9.1-2.2-13.8 0.3-4.7 1.7-9.3 4-13.5 2.2-4.1 5.4-7.7 9.3-10.5 3.8-2.7 8.2-4.6 12.9-5.5q2.3-0.4 4.6-0.5 2.4-0.1 4.7 0.2 2.4 0.3 4.7 0.9 2.2 0.6 4.4 1.5 2.9 1.2 5.6 3z"/>
			<path id="Layer" class="s20" d="m490.6 454q-5.9 42.3-48.2 36.3l-119.4-16.5-7.3-56.8 181.5-11.2z"/>
			<path id="Layer" class="s21" d="m471.5 280.9q42.3 5.9 36.4 48.2l-10.7 76.7-181.5 11.2-15-116.5q5.9-42.3 48.2-36.5z"/>
			<path id="Layer" class="s22" d="m332.4 303.6l-68.2 126 57.4 141.5c0.9 2 1.3 4.2 1.4 6.4 0.1 2.2-0.3 4.4-1 6.5-0.8 2.1-1.9 4-3.3 5.7-1.4 1.7-3.1 3.1-5.1 4.1l-27.1 15 10 29-34.4 11.8-14.9-43.4c-0.7-2-1-4.2-1-6.3 0-2.1 0.4-4.2 1.2-6.2 0.8-2 1.9-3.8 3.3-5.4 1.4-1.6 3-2.9 4.9-4l26.3-14.5-54.7-134.5q-0.7-1.8-1.1-3.8-0.3-2-0.2-4 0.1-2 0.7-4 0.5-1.9 1.5-3.7l72.3-133.5z"/>
			<path id="Layer" class="s6" d="m262.3 684.3l14.6-93.7 243.9 3 15 86-25.2 4.4-11.4-65-200.4-2.5-11.2 71.7z"/>
			<path id="Layer" class="s22" d="m297.2 585.3c0.6-3.3 2.5-6.3 5.3-8.2 2.8-2 6.3-2.7 9.6-2.1 3.4 0.6 6.3 2.5 8.3 5.3 1.9 2.8 2.6 6.2 2 9.6l-5.7 31.7c-0.5 2.5-1.6 4.8-3.4 6.6-1.8 1.8-4 3.1-6.5 3.6-2.5 0.5-5.1 0.3-7.4-0.6-2.4-0.9-4.4-2.5-5.8-4.6q-0.8-1.1-1.3-2.2-0.5-1.2-0.7-2.4-0.3-1.2-0.3-2.5 0-1.3 0.2-2.5l5.7-31.7"/>
			<path id="Layer" class="s21" d="m512.6 271.3l-28.2 47.8-143.2-26.6-10.1-53.6z"/>
			<path id="Layer" class="s4" d="m314.5 548.1l-38 11.8-11.6-32 36.9-10.9z"/>
			<path id="Layer" class="s20" d="m310.4 522.8q-1.1 2.9-2.8 5.6-1.7 2.7-3.9 4.9-2.1 2.3-4.7 4.1-2.6 1.9-5.5 3.1-2.9 1.3-6 2-3 0.7-6.2 0.7-3.1 0.1-6.3-0.4-3.1-0.6-6-1.7-3-1.1-5.6-2.8-2.7-1.7-5-3.9-2.3-2.2-4.1-4.8-1.8-2.6-3-5.5l-27.9-63.5 62.3-17.4 24.2 55.1q1.3 2.9 2 6 0.7 3 0.8 6.2 0.1 3.2-0.5 6.3-0.6 3.1-1.8 6"/>
			<path id="Layer" class="s21" d="m293.6 279.9q0.9-1.3 1.8-2.5 1-1.3 2.1-2.4 1.1-1.2 2.3-2.2 1.2-1 2.5-1.9 1.3-0.9 2.7-1.7 1.4-0.7 2.8-1.4 1.5-0.6 3-1.1 1.5-0.4 3-0.8c4.1-0.8 8.4-0.9 12.5-0.1 4.1 0.7 8.1 2.3 11.6 4.6 3.5 2.3 6.6 5.2 9 8.7 2.4 3.4 4 7.3 4.9 11.4q0.7 3.1 0.8 6.2 0.1 3.2-0.4 6.3-0.6 3.1-1.8 6-1.1 2.9-2.9 5.5l-70.2 109.5 8.4 19.2-62.3 17.4-11.7-26.7q-0.8-1.8-1.4-3.7-0.5-1.9-0.9-3.8-0.3-1.9-0.4-3.9-0.1-2 0.1-3.9 0.2-2 0.6-4 0.4-1.9 1-3.8 0.6-1.9 1.5-3.6 0.8-1.8 1.9-3.5z"/>
			<path id="Layer" class="s24" d="m412.8 318.1l0.4 167h-17.1l-0.3-167"/>
			<path id="Layer" fill-rule="evenodd" class="s4" d="m366.1 394l23-57.7 29.5 3.4 3.6 63.5zm12.3-6.9l28 1.5v-21.8l-19.5-1.5z"/>
			<path id="Layer" class="s24" d="m374 300l-17.1 1-6.4-104.3 17.1-1zm134.5-66l-59.8 90.7-14.3-9.4 59.9-90.8z"/>
			<path id="Layer" class="s6" d="m373.4 277.1l72.6 16.1 30.2-78.9 0.1 0.2q1.7 3.3 3.3 6.6 1.6 3.3 3.2 6.7 1.5 3.4 2.9 6.8 1.4 3.4 2.8 6.8l-34 77.5q-0.8 3.2-2.3 6-1.5 2.9-3.4 5.5-2 2.6-4.5 4.7-2.4 2.1-5.2 3.7-0.7 0.5-1.5 0.8-3 1.7-6.3 2.7-3.3 1-6.7 1.3-3.4 0.3-6.9 0-3.4-0.4-6.7-1.4l-31.6-10q-3-0.8-5.7-2.2-2.8-1.4-5.2-3.2-2.5-1.9-4.6-4.2-2.1-2.3-3.7-4.9-0.7-1.2-1.4-2.5-6.6-12.6-2.1-32.1l12.4-87q2 0.1 3.9 0.1 2-0.1 4-0.2 1.9-0.2 3.9-0.5 1.9-0.3 3.8-0.7z"/>
			<path id="Layer" class="s22" d="m397.5 190.1q3-1.6 6.3-2.7 3.2-1 6.7-1.3 3.4-0.4 6.8 0 3.4 0.4 6.7 1.4l31.8 9.8q3.3 1 6.3 2.6 3 1.6 5.6 3.8 2.6 2.2 4.8 4.9 2.1 2.6 3.7 5.6l-30.2 78.9-72.6-16 11.3-82.3q1.7-0.4 3.3-0.8 1.7-0.5 3.3-1.1 1.6-0.6 3.1-1.3 1.6-0.6 3.1-1.4"/>
			<path id="Layer" class="s25" d="m414.7 186q1.5 0 3.1 0.2 1.6 0.2 3.1 0.5 1.6 0.3 3.1 0.8l31.8 9.8-31.8-9.8q-3.3-1-6.7-1.4-3.4-0.4-6.8 0-3.4 0.3-6.7 1.3-3.3 1-6.3 2.7-1.5 0.8-3 1.5-1.5 0.6-3.1 1.2-1.5 0.6-3.1 1-1.6 0.5-3.2 0.9 1.6-0.4 3.2-0.9 1.6-0.5 3.1-1.1 1.6-0.5 3.1-1.2 1.5-0.7 3-1.5 1.6-0.9 3.3-1.6 1.7-0.6 3.5-1.1 1.8-0.5 3.6-0.9 1.8-0.3 3.6-0.4 1.6-0.1 3.2 0zm-46.7 17.4l1.1-7.3zm12.3-7.8q-0.7 0.1-1.4 0.1-0.8 0.1-1.5 0.2-0.8 0.1-1.5 0.1c-1.5 0.1-3.1 0.1-4.7 0.1q2.4 0.1 4.7-0.1 0.7 0 1.5-0.1 0.7-0.1 1.5-0.2 0.7 0 1.4-0.1 0.8-0.1 1.5-0.3-0.7 0.2-1.5 0.3z"/>
			<path id="Layer" class="s26" d="m368 203.4l-5.1 36 5.1-36z"/>
			<path id="Layer" class="s27" d="m384.7 194.8l-6.4 47.2-15.4-2.6 5.1-36 1.1-7.3h2.2q2.3 0.1 4.6-0.1 0.8 0 1.5-0.1 0.8 0 1.5-0.1 0.7-0.1 1.5-0.2 0.7-0.1 1.4-0.2 1.5-0.3 2.9-0.6"/>
			<path id="Layer" class="s26" d="m480.6 259.5l7.9-18.1z"/>
			<path id="Layer" class="s27" d="m476.1 214.4l0.1 0.1q1.7 3.3 3.4 6.6 1.6 3.3 3.1 6.7 1.6 3.4 3 6.8 1.4 3.4 2.8 6.9l-7.9 18-20.4-3.5 15.9-41.6"/>
			<path id="Layer" class="s28" d="m414.8 186q1.5 0 3.1 0.2 1.5 0.2 3.1 0.6 1.5 0.3 3 0.8l31.8 9.8q3.3 1 6.3 2.6 3 1.6 5.6 3.8 2.7 2.2 4.8 4.9 2.1 2.7 3.7 5.7l-15.9 41.6-82-14 6.4-47.2 0.3-0.1q1.7-0.4 3.3-0.8 1.6-0.5 3.1-1.1 1.6-0.5 3.1-1.2 1.5-0.7 3-1.5 1.6-0.9 3.3-1.6 1.8-0.7 3.5-1.2 1.8-0.5 3.6-0.8 1.9-0.4 3.7-0.5 1.6-0.1 3.2 0z"/>
			<path id="Layer" class="s29" d="m384.3 139q31.7-19.6 67.9-11.3 36.2 8.2 56 39.7 19.8 31.7 11.5 67.9-1.4 5.4-3 10.2l-174.1-39.9q0.2-1.3 0.4-2.6 0.1-1.3 0.4-2.7 0.2-1.3 0.5-2.6 0.3-1.3 0.6-2.6 8.3-36.3 39.8-56.1z"/>
			<path id="Layer" class="s22" d="m479.2 588.6c0.6-1.6 1.4-3 2.5-4.3 1.1-1.2 2.4-2.2 3.9-3 1.5-0.7 3.1-1.2 4.8-1.3 1.6-0.1 3.3 0.1 4.8 0.6 1.6 0.5 3.1 1.3 4.4 2.4 1.2 1 2.3 2.3 3 3.8 0.8 1.5 1.3 3.1 1.5 4.7l2.4 32.3q0.1 1.2-0.1 2.5-0.1 1.2-0.5 2.4-0.4 1.2-1 2.3-0.7 1.1-1.5 2.1c-1.1 1.3-2.4 2.3-3.9 3.1-1.5 0.7-3.2 1.2-4.8 1.3-1.7 0.1-3.4-0.1-5-0.6-1.6-0.5-3.1-1.4-4.3-2.5q-1-0.8-1.8-1.8-0.8-1-1.3-2.1-0.6-1.1-0.9-2.3-0.4-1.3-0.5-2.5l-2.4-32.3c-0.1-1.6 0.2-3.3 0.7-4.8z"/>
			<path id="Layer" class="s21" d="m389.8 788.7l-6.5 125.6-17-0.9 6.4-125.6"/>
			<path id="Layer" class="s6" d="m411 678.1l-11.2 344.6-21.3-0.7 11.1-344.6"/>
		</g>
	</g>
</svg>